{
    "asset" : {
        "generator" : "Khronos glTF Blender I/O v1.6.16",
        "version" : "2.0"
    },
    "scene" : 0,
    "scenes" : [
        {
            "name" : "Scene",
            "nodes" : [
                0,
                1,
                2,
                3,
                4,
                5,
                6,
                7,
                8,
                9
            ]
        }
    ],
    "nodes" : [
        {
            "mesh" : 0,
            "name" : "Bone_1",
            "translation" : [
                -0.2478647232055664,
                0.02437397837638855,
                0.34139275550842285
            ]
        },
        {
            "mesh" : 1,
            "name" : "Bone_2",
            "translation" : [
                0.02190852165222168,
                0.03371884301304817,
                0.2934870719909668
            ]
        },
        {
            "mesh" : 2,
            "name" : "Bone_3",
            "translation" : [
                0.2805732786655426,
                0.03286594897508621,
                0.15487802028656006
            ]
        },
        {
            "mesh" : 3,
            "name" : "Ribs",
            "translation" : [
                -0.20995378494262695,
                0.16808059811592102,
                -0.32135245203971863
            ]
        },
        {
            "mesh" : 4,
            "name" : "Spine",
            "translation" : [
                0.2636297345161438,
                0.07141552120447159,
                -0.0878748893737793
            ]
        },
        {
            "mesh" : 5,
            "name" : "Skull_2",
            "translation" : [
                0.8378245830535889,
                0.1614280492067337,
                -0.1895836591720581
            ]
        },
        {
            "mesh" : 6,
            "name" : "Jaw",
            "translation" : [
                1.088071346282959,
                0.053273458033800125,
                -0.1895836591720581
            ]
        },
        {
            "mesh" : 7,
            "name" : "HipBone_1",
            "translation" : [
                0.5299679040908813,
                0.2608104348182678,
                -0.6019687652587891
            ]
        },
        {
            "mesh" : 8,
            "name" : "Skull_1",
            "translation" : [
                0.5890644788742065,
                0.1614280492067337,
                -0.1895836591720581
            ]
        },
        {
            "mesh" : 9,
            "name" : "HipBone_2",
            "translation" : [
                0.9090967178344727,
                0.2608104348182678,
                -0.6019687652587891
            ]
        }
    ],
    "materials" : [
        {
            "doubleSided" : true,
            "emissiveFactor" : [
                1,
                1,
                1
            ],
            "emissiveTexture" : {
                "index" : 0
            },
            "name" : "Bones",
            "pbrMetallicRoughness" : {}
        }
    ],
    "meshes" : [
        {
            "name" : "Plane",
            "primitives" : [
                {
                    "attributes" : {
                        "POSITION" : 0,
                        "NORMAL" : 1,
                        "TEXCOORD_0" : 2
                    },
                    "indices" : 3,
                    "material" : 0
                }
            ]
        },
        {
            "name" : "Plane.001",
            "primitives" : [
                {
                    "attributes" : {
                        "POSITION" : 4,
                        "NORMAL" : 5,
                        "TEXCOORD_0" : 6
                    },
                    "indices" : 7,
                    "material" : 0
                }
            ]
        },
        {
            "name" : "Plane.004",
            "primitives" : [
                {
                    "attributes" : {
                        "POSITION" : 8,
                        "NORMAL" : 9,
                        "TEXCOORD_0" : 10
                    },
                    "indices" : 11,
                    "material" : 0
                }
            ]
        },
        {
            "name" : "Plane.005",
            "primitives" : [
                {
                    "attributes" : {
                        "POSITION" : 12,
                        "NORMAL" : 13,
                        "TEXCOORD_0" : 14
                    },
                    "indices" : 15,
                    "material" : 0
                }
            ]
        },
        {
            "name" : "Cube.005",
            "primitives" : [
                {
                    "attributes" : {
                        "POSITION" : 16,
                        "NORMAL" : 17,
                        "TEXCOORD_0" : 18
                    },
                    "indices" : 19,
                    "material" : 0
                }
            ]
        },
        {
            "name" : "Circle.001",
            "primitives" : [
                {
                    "attributes" : {
                        "POSITION" : 20,
                        "NORMAL" : 21,
                        "TEXCOORD_0" : 22,
                        "COLOR_0" : 23
                    },
                    "indices" : 24,
                    "material" : 0
                }
            ]
        },
        {
            "name" : "Circle.002",
            "primitives" : [
                {
                    "attributes" : {
                        "POSITION" : 25,
                        "NORMAL" : 26,
                        "TEXCOORD_0" : 27
                    },
                    "indices" : 28,
                    "material" : 0
                }
            ]
        },
        {
            "name" : "Plane.002",
            "primitives" : [
                {
                    "attributes" : {
                        "POSITION" : 29,
                        "NORMAL" : 30,
                        "TEXCOORD_0" : 31
                    },
                    "indices" : 32,
                    "material" : 0
                }
            ]
        },
        {
            "name" : "Circle.003",
            "primitives" : [
                {
                    "attributes" : {
                        "POSITION" : 33,
                        "NORMAL" : 34,
                        "TEXCOORD_0" : 35,
                        "COLOR_0" : 36
                    },
                    "indices" : 37,
                    "material" : 0
                }
            ]
        },
        {
            "name" : "Plane.003",
            "primitives" : [
                {
                    "attributes" : {
                        "POSITION" : 38,
                        "NORMAL" : 39,
                        "TEXCOORD_0" : 40
                    },
                    "indices" : 41,
                    "material" : 0
                }
            ]
        }
    ],
    "textures" : [
        {
            "sampler" : 0,
            "source" : 0
        }
    ],
    "images" : [
        {
            "bufferView" : 4,
            "mimeType" : "image/png",
            "name" : "bones_RMAo"
        }
    ],
    "accessors" : [
        {
            "bufferView" : 0,
            "componentType" : 5126,
            "count" : 154,
            "max" : [
                0.03775086998939514,
                0.03348530828952789,
                0.19793659448623657
            ],
            "min" : [
                -0.035178858786821365,
                -0.02437397837638855,
                -0.16611462831497192
            ],
            "type" : "VEC3"
        },
        {
            "bufferView" : 1,
            "componentType" : 5126,
            "count" : 154,
            "type" : "VEC3"
        },
        {
            "bufferView" : 2,
            "componentType" : 5126,
            "count" : 154,
            "type" : "VEC2"
        },
        {
            "bufferView" : 3,
            "componentType" : 5123,
            "count" : 768,
            "type" : "SCALAR"
        },
        {
            "bufferView" : 5,
            "componentType" : 5126,
            "count" : 215,
            "max" : [
                0.03924364596605301,
                0.050351932644844055,
                0.24608489871025085
            ],
            "min" : [
                -0.07635696232318878,
                -0.03371884301304817,
                -0.23901186883449554
            ],
            "type" : "VEC3"
        },
        {
            "bufferView" : 6,
            "componentType" : 5126,
            "count" : 215,
            "type" : "VEC3"
        },
        {
            "bufferView" : 7,
            "componentType" : 5126,
            "count" : 215,
            "type" : "VEC2"
        },
        {
            "bufferView" : 8,
            "componentType" : 5123,
            "count" : 1008,
            "type" : "SCALAR"
        },
        {
            "bufferView" : 9,
            "componentType" : 5126,
            "count" : 266,
            "max" : [
                0.11424454301595688,
                0.09807755798101425,
                0.4179581105709076
            ],
            "min" : [
                -0.1044035330414772,
                -0.03286594897508621,
                -0.09984362870454788
            ],
            "type" : "VEC3"
        },
        {
            "bufferView" : 10,
            "componentType" : 5126,
            "count" : 266,
            "type" : "VEC3"
        },
        {
            "bufferView" : 11,
            "componentType" : 5126,
            "count" : 266,
            "type" : "VEC2"
        },
        {
            "bufferView" : 12,
            "componentType" : 5123,
            "count" : 1200,
            "type" : "SCALAR"
        },
        {
            "bufferView" : 13,
            "componentType" : 5126,
            "count" : 1654,
            "max" : [
                0.25423142313957214,
                0.008985890075564384,
                0.28389328718185425
            ],
            "min" : [
                -0.25423142313957214,
                -0.2262350469827652,
                -0.23854072391986847
            ],
            "type" : "VEC3"
        },
        {
            "bufferView" : 14,
            "componentType" : 5126,
            "count" : 1654,
            "type" : "VEC3"
        },
        {
            "bufferView" : 15,
            "componentType" : 5126,
            "count" : 1654,
            "type" : "VEC2"
        },
        {
            "bufferView" : 16,
            "componentType" : 5123,
            "count" : 7332,
            "type" : "SCALAR"
        },
        {
            "bufferView" : 17,
            "componentType" : 5126,
            "count" : 3026,
            "max" : [
                0.04209970682859421,
                0.07779193669557571,
                0.14038822054862976
            ],
            "min" : [
                -0.13585205376148224,
                -0.07141552120447159,
                -0.7947111129760742
            ],
            "type" : "VEC3"
        },
        {
            "bufferView" : 18,
            "componentType" : 5126,
            "count" : 3026,
            "type" : "VEC3"
        },
        {
            "bufferView" : 19,
            "componentType" : 5126,
            "count" : 3026,
            "type" : "VEC2"
        },
        {
            "bufferView" : 20,
            "componentType" : 5123,
            "count" : 5352,
            "type" : "SCALAR"
        },
        {
            "bufferView" : 21,
            "componentType" : 5126,
            "count" : 978,
            "max" : [
                0.0948922336101532,
                0.09422998130321503,
                0.06476755440235138
            ],
            "min" : [
                -0.0948922336101532,
                -0.1614280492067337,
                -0.16651414334774017
            ],
            "type" : "VEC3"
        },
        {
            "bufferView" : 22,
            "componentType" : 5126,
            "count" : 978,
            "type" : "VEC3"
        },
        {
            "bufferView" : 23,
            "componentType" : 5126,
            "count" : 978,
            "type" : "VEC2"
        },
        {
            "bufferView" : 24,
            "componentType" : 5123,
            "count" : 978,
            "normalized" : true,
            "type" : "VEC4"
        },
        {
            "bufferView" : 25,
            "componentType" : 5123,
            "count" : 3972,
            "type" : "SCALAR"
        },
        {
            "bufferView" : 26,
            "componentType" : 5126,
            "count" : 341,
            "max" : [
                0.0904545783996582,
                0.09197062999010086,
                0.12762701511383057
            ],
            "min" : [
                -0.0904545783996582,
                -0.053273458033800125,
                -0.00947523582726717
            ],
            "type" : "VEC3"
        },
        {
            "bufferView" : 27,
            "componentType" : 5126,
            "count" : 341,
            "type" : "VEC3"
        },
        {
            "bufferView" : 28,
            "componentType" : 5126,
            "count" : 341,
            "type" : "VEC2"
        },
        {
            "bufferView" : 29,
            "componentType" : 5123,
            "count" : 1380,
            "type" : "SCALAR"
        },
        {
            "bufferView" : 30,
            "componentType" : 5126,
            "count" : 562,
            "max" : [
                0.2532942593097687,
                0.016699088737368584,
                0.01857672445476055
            ],
            "min" : [
                -0.2532942593097687,
                -0.2608104348182678,
                -0.4414918124675751
            ],
            "type" : "VEC3"
        },
        {
            "bufferView" : 31,
            "componentType" : 5126,
            "count" : 562,
            "type" : "VEC3"
        },
        {
            "bufferView" : 32,
            "componentType" : 5126,
            "count" : 562,
            "type" : "VEC2"
        },
        {
            "bufferView" : 33,
            "componentType" : 5123,
            "count" : 2064,
            "type" : "SCALAR"
        },
        {
            "bufferView" : 34,
            "componentType" : 5126,
            "count" : 1402,
            "max" : [
                0.0948922336101532,
                0.09422998130321503,
                0.12967044115066528
            ],
            "min" : [
                -0.0948922336101532,
                -0.1614280492067337,
                -0.16651414334774017
            ],
            "type" : "VEC3"
        },
        {
            "bufferView" : 35,
            "componentType" : 5126,
            "count" : 1402,
            "type" : "VEC3"
        },
        {
            "bufferView" : 36,
            "componentType" : 5126,
            "count" : 1402,
            "type" : "VEC2"
        },
        {
            "bufferView" : 37,
            "componentType" : 5123,
            "count" : 1402,
            "normalized" : true,
            "type" : "VEC4"
        },
        {
            "bufferView" : 38,
            "componentType" : 5123,
            "count" : 5352,
            "type" : "SCALAR"
        },
        {
            "bufferView" : 39,
            "componentType" : 5126,
            "count" : 281,
            "max" : [
                0.2532942593097687,
                0.016699088737368584,
                0.01857672445476055
            ],
            "min" : [
                0.00996375922113657,
                -0.2608104348182678,
                -0.4414918124675751
            ],
            "type" : "VEC3"
        },
        {
            "bufferView" : 40,
            "componentType" : 5126,
            "count" : 281,
            "type" : "VEC3"
        },
        {
            "bufferView" : 41,
            "componentType" : 5126,
            "count" : 281,
            "type" : "VEC2"
        },
        {
            "bufferView" : 42,
            "componentType" : 5123,
            "count" : 1032,
            "type" : "SCALAR"
        }
    ],
    "bufferViews" : [
        {
            "buffer" : 0,
            "byteLength" : 1848,
            "byteOffset" : 0
        },
        {
            "buffer" : 0,
            "byteLength" : 1848,
            "byteOffset" : 1848
        },
        {
            "buffer" : 0,
            "byteLength" : 1232,
            "byteOffset" : 3696
        },
        {
            "buffer" : 0,
            "byteLength" : 1536,
            "byteOffset" : 4928
        },
        {
            "buffer" : 0,
            "byteLength" : 691733,
            "byteOffset" : 6464
        },
        {
            "buffer" : 0,
            "byteLength" : 2580,
            "byteOffset" : 698200
        },
        {
            "buffer" : 0,
            "byteLength" : 2580,
            "byteOffset" : 700780
        },
        {
            "buffer" : 0,
            "byteLength" : 1720,
            "byteOffset" : 703360
        },
        {
            "buffer" : 0,
            "byteLength" : 2016,
            "byteOffset" : 705080
        },
        {
            "buffer" : 0,
            "byteLength" : 3192,
            "byteOffset" : 707096
        },
        {
            "buffer" : 0,
            "byteLength" : 3192,
            "byteOffset" : 710288
        },
        {
            "buffer" : 0,
            "byteLength" : 2128,
            "byteOffset" : 713480
        },
        {
            "buffer" : 0,
            "byteLength" : 2400,
            "byteOffset" : 715608
        },
        {
            "buffer" : 0,
            "byteLength" : 19848,
            "byteOffset" : 718008
        },
        {
            "buffer" : 0,
            "byteLength" : 19848,
            "byteOffset" : 737856
        },
        {
            "buffer" : 0,
            "byteLength" : 13232,
            "byteOffset" : 757704
        },
        {
            "buffer" : 0,
            "byteLength" : 14664,
            "byteOffset" : 770936
        },
        {
            "buffer" : 0,
            "byteLength" : 36312,
            "byteOffset" : 785600
        },
        {
            "buffer" : 0,
            "byteLength" : 36312,
            "byteOffset" : 821912
        },
        {
            "buffer" : 0,
            "byteLength" : 24208,
            "byteOffset" : 858224
        },
        {
            "buffer" : 0,
            "byteLength" : 10704,
            "byteOffset" : 882432
        },
        {
            "buffer" : 0,
            "byteLength" : 11736,
            "byteOffset" : 893136
        },
        {
            "buffer" : 0,
            "byteLength" : 11736,
            "byteOffset" : 904872
        },
        {
            "buffer" : 0,
            "byteLength" : 7824,
            "byteOffset" : 916608
        },
        {
            "buffer" : 0,
            "byteLength" : 7824,
            "byteOffset" : 924432
        },
        {
            "buffer" : 0,
            "byteLength" : 7944,
            "byteOffset" : 932256
        },
        {
            "buffer" : 0,
            "byteLength" : 4092,
            "byteOffset" : 940200
        },
        {
            "buffer" : 0,
            "byteLength" : 4092,
            "byteOffset" : 944292
        },
        {
            "buffer" : 0,
            "byteLength" : 2728,
            "byteOffset" : 948384
        },
        {
            "buffer" : 0,
            "byteLength" : 2760,
            "byteOffset" : 951112
        },
        {
            "buffer" : 0,
            "byteLength" : 6744,
            "byteOffset" : 953872
        },
        {
            "buffer" : 0,
            "byteLength" : 6744,
            "byteOffset" : 960616
        },
        {
            "buffer" : 0,
            "byteLength" : 4496,
            "byteOffset" : 967360
        },
        {
            "buffer" : 0,
            "byteLength" : 4128,
            "byteOffset" : 971856
        },
        {
            "buffer" : 0,
            "byteLength" : 16824,
            "byteOffset" : 975984
        },
        {
            "buffer" : 0,
            "byteLength" : 16824,
            "byteOffset" : 992808
        },
        {
            "buffer" : 0,
            "byteLength" : 11216,
            "byteOffset" : 1009632
        },
        {
            "buffer" : 0,
            "byteLength" : 11216,
            "byteOffset" : 1020848
        },
        {
            "buffer" : 0,
            "byteLength" : 10704,
            "byteOffset" : 1032064
        },
        {
            "buffer" : 0,
            "byteLength" : 3372,
            "byteOffset" : 1042768
        },
        {
            "buffer" : 0,
            "byteLength" : 3372,
            "byteOffset" : 1046140
        },
        {
            "buffer" : 0,
            "byteLength" : 2248,
            "byteOffset" : 1049512
        },
        {
            "buffer" : 0,
            "byteLength" : 2064,
            "byteOffset" : 1051760
        }
    ],
    "samplers" : [
        {
            "magFilter" : 9729,
            "minFilter" : 9987
        }
    ],
    "buffers" : [
        {
            "byteLength" : 1053824,
            "uri" : "data:application/octet-stream;base64,"
        }
    ]
}
